<svg height="2926" width="720" xmlns="http://www.w3.org/2000/svg">
<rect height="2926" fill="#555" width="720"></rect>
<text fill="#7f7" font-family="Courier New" font-size="12" xml:space="preserve">
<tspan x="10" y="26">23 megabytes installed</tspan>
<tspan x="10" y="42"></tspan>
<tspan x="10" y="58">node_modules</tspan>
<tspan x="10" y="74">└─┬ generator-express@2.15.0 </tspan>
<tspan x="10" y="90">  ├─┬ glob@7.1.1 </tspan>
<tspan x="10" y="106">  │ ├── fs.realpath@1.0.0 </tspan>
<tspan x="10" y="122">  │ ├─┬ inflight@1.0.6 </tspan>
<tspan x="10" y="138">  │ │ └── wrappy@1.0.2 </tspan>
<tspan x="10" y="154">  │ ├── inherits@2.0.3 </tspan>
<tspan x="10" y="170">  │ ├─┬ minimatch@3.0.3 </tspan>
<tspan x="10" y="186">  │ │ └─┬ brace-expansion@1.1.7 </tspan>
<tspan x="10" y="202">  │ │   ├── balanced-match@0.4.2 </tspan>
<tspan x="10" y="218">  │ │   └── concat-map@0.0.1 </tspan>
<tspan x="10" y="234">  │ ├── once@1.4.0 </tspan>
<tspan x="10" y="250">  │ └── path-is-absolute@1.0.1 </tspan>
<tspan x="10" y="266">  ├─┬ mkdirp@0.5.1 </tspan>
<tspan x="10" y="282">  │ └── minimist@0.0.8 </tspan>
<tspan x="10" y="298">  ├─┬ underscore.string@3.3.4 </tspan>
<tspan x="10" y="314">  │ ├── sprintf-js@1.0.3 </tspan>
<tspan x="10" y="330">  │ └── util-deprecate@1.0.2 </tspan>
<tspan x="10" y="346">  └─┬ yeoman-generator@1.1.1 </tspan>
<tspan x="10" y="362">    ├── async@2.3.0 </tspan>
<tspan x="10" y="378">    ├─┬ chalk@1.1.3 </tspan>
<tspan x="10" y="394">    │ ├── ansi-styles@2.2.1 </tspan>
<tspan x="10" y="410">    │ ├── escape-string-regexp@1.0.5 </tspan>
<tspan x="10" y="426">    │ ├─┬ has-ansi@2.0.0 </tspan>
<tspan x="10" y="442">    │ │ └── ansi-regex@2.1.1 </tspan>
<tspan x="10" y="458">    │ ├── strip-ansi@3.0.1 </tspan>
<tspan x="10" y="474">    │ └── supports-color@2.0.0 </tspan>
<tspan x="10" y="490">    ├─┬ class-extend@0.1.2 </tspan>
<tspan x="10" y="506">    │ └── object-assign@2.1.1 </tspan>
<tspan x="10" y="522">    ├─┬ cli-table@0.3.1 </tspan>
<tspan x="10" y="538">    │ └── colors@1.0.3 </tspan>
<tspan x="10" y="554">    ├─┬ cross-spawn@5.1.0 </tspan>
<tspan x="10" y="570">    │ ├─┬ lru-cache@4.0.2 </tspan>
<tspan x="10" y="586">    │ │ ├── pseudomap@1.0.2 </tspan>
<tspan x="10" y="602">    │ │ └── yallist@2.1.2 </tspan>
<tspan x="10" y="618">    │ ├─┬ shebang-command@1.2.0 </tspan>
<tspan x="10" y="634">    │ │ └── shebang-regex@1.0.0 </tspan>
<tspan x="10" y="650">    │ └─┬ which@1.2.14 </tspan>
<tspan x="10" y="666">    │   └── isexe@2.0.0 </tspan>
<tspan x="10" y="682">    ├── dargs@5.1.0 </tspan>
<tspan x="10" y="698">    ├── dateformat@2.0.0 </tspan>
<tspan x="10" y="714">    ├─┬ debug@2.6.3 </tspan>
<tspan x="10" y="730">    │ └── ms@0.7.2 </tspan>
<tspan x="10" y="746">    ├── detect-conflict@1.0.1 </tspan>
<tspan x="10" y="762">    ├─┬ error@7.0.2 </tspan>
<tspan x="10" y="778">    │ ├── string-template@0.2.1 </tspan>
<tspan x="10" y="794">    │ └── xtend@4.0.1 </tspan>
<tspan x="10" y="810">    ├─┬ find-up@2.1.0 </tspan>
<tspan x="10" y="826">    │ └─┬ locate-path@2.0.0 </tspan>
<tspan x="10" y="842">    │   └─┬ p-locate@2.0.0 </tspan>
<tspan x="10" y="858">    │     └── p-limit@1.1.0 </tspan>
<tspan x="10" y="874">    ├─┬ github-username@3.0.0 </tspan>
<tspan x="10" y="890">    │ └─┬ gh-got@5.0.0 </tspan>
<tspan x="10" y="906">    │   ├─┬ got@6.7.1 </tspan>
<tspan x="10" y="922">    │   │ ├─┬ create-error-class@3.0.2 </tspan>
<tspan x="10" y="938">    │   │ │ └── capture-stack-trace@1.0.0 </tspan>
<tspan x="10" y="954">    │   │ ├── duplexer3@0.1.4 </tspan>
<tspan x="10" y="970">    │   │ ├── get-stream@3.0.0 </tspan>
<tspan x="10" y="986">    │   │ ├── is-redirect@1.0.0 </tspan>
<tspan x="10" y="1002">    │   │ ├── is-retry-allowed@1.1.0 </tspan>
<tspan x="10" y="1018">    │   │ ├── lowercase-keys@1.0.0 </tspan>
<tspan x="10" y="1034">    │   │ ├── safe-buffer@5.0.1 </tspan>
<tspan x="10" y="1050">    │   │ ├── timed-out@4.0.1 </tspan>
<tspan x="10" y="1066">    │   │ ├── unzip-response@2.0.1 </tspan>
<tspan x="10" y="1082">    │   │ └─┬ url-parse-lax@1.0.0 </tspan>
<tspan x="10" y="1098">    │   │   └── prepend-http@1.0.4 </tspan>
<tspan x="10" y="1114">    │   └── is-plain-obj@1.1.0 </tspan>
<tspan x="10" y="1130">    ├─┬ istextorbinary@2.1.0 </tspan>
<tspan x="10" y="1146">    │ ├── binaryextensions@2.0.0 </tspan>
<tspan x="10" y="1162">    │ ├── editions@1.3.3 </tspan>
<tspan x="10" y="1178">    │ └── textextensions@2.0.1 </tspan>
<tspan x="10" y="1194">    ├── lodash@4.17.4 </tspan>
<tspan x="10" y="1210">    ├─┬ mem-fs-editor@3.0.2 </tspan>
<tspan x="10" y="1226">    │ ├── commondir@1.0.1 </tspan>
<tspan x="10" y="1242">    │ ├── deep-extend@0.4.1 </tspan>
<tspan x="10" y="1258">    │ ├── ejs@2.5.6 </tspan>
<tspan x="10" y="1274">    │ ├─┬ globby@6.1.0 </tspan>
<tspan x="10" y="1290">    │ │ ├─┬ array-union@1.0.2 </tspan>
<tspan x="10" y="1306">    │ │ │ └── array-uniq@1.0.3 </tspan>
<tspan x="10" y="1322">    │ │ ├── object-assign@4.1.1 </tspan>
<tspan x="10" y="1338">    │ │ └─┬ pinkie-promise@2.0.1 </tspan>
<tspan x="10" y="1354">    │ │   └── pinkie@2.0.4 </tspan>
<tspan x="10" y="1370">    │ ├─┬ multimatch@2.1.0 </tspan>
<tspan x="10" y="1386">    │ │ ├── array-differ@1.0.0 </tspan>
<tspan x="10" y="1402">    │ │ └── arrify@1.0.1 </tspan>
<tspan x="10" y="1418">    │ └─┬ vinyl@2.0.1 </tspan>
<tspan x="10" y="1434">    │   ├── clone@1.0.2 </tspan>
<tspan x="10" y="1450">    │   ├── clone-buffer@1.0.0 </tspan>
<tspan x="10" y="1466">    │   ├── clone-stats@1.0.0 </tspan>
<tspan x="10" y="1482">    │   ├── cloneable-readable@1.0.0 </tspan>
<tspan x="10" y="1498">    │   ├── is-stream@1.1.0 </tspan>
<tspan x="10" y="1514">    │   ├── remove-trailing-separator@1.0.1 </tspan>
<tspan x="10" y="1530">    │   └── replace-ext@1.0.0 </tspan>
<tspan x="10" y="1546">    ├── minimist@1.2.0 </tspan>
<tspan x="10" y="1562">    ├── path-exists@3.0.0 </tspan>
<tspan x="10" y="1578">    ├── pretty-bytes@4.0.2 </tspan>
<tspan x="10" y="1594">    ├─┬ read-chunk@2.0.0 </tspan>
<tspan x="10" y="1610">    │ └── pify@2.3.0 </tspan>
<tspan x="10" y="1626">    ├─┬ read-pkg-up@2.0.0 </tspan>
<tspan x="10" y="1642">    │ └─┬ read-pkg@2.0.0 </tspan>
<tspan x="10" y="1658">    │   ├─┬ load-json-file@2.0.0 </tspan>
<tspan x="10" y="1674">    │   │ ├── graceful-fs@4.1.11 </tspan>
<tspan x="10" y="1690">    │   │ ├─┬ parse-json@2.2.0 </tspan>
<tspan x="10" y="1706">    │   │ │ └─┬ error-ex@1.3.1 </tspan>
<tspan x="10" y="1722">    │   │ │   └── is-arrayish@0.2.1 </tspan>
<tspan x="10" y="1738">    │   │ └── strip-bom@3.0.0 </tspan>
<tspan x="10" y="1754">    │   ├─┬ normalize-package-data@2.3.6 </tspan>
<tspan x="10" y="1770">    │   │ ├── hosted-git-info@2.4.2 </tspan>
<tspan x="10" y="1786">    │   │ ├─┬ is-builtin-module@1.0.0 </tspan>
<tspan x="10" y="1802">    │   │ │ └── builtin-modules@1.1.1 </tspan>
<tspan x="10" y="1818">    │   │ ├── semver@5.3.0 </tspan>
<tspan x="10" y="1834">    │   │ └─┬ validate-npm-package-license@3.0.1 </tspan>
<tspan x="10" y="1850">    │   │   ├─┬ spdx-correct@1.0.2 </tspan>
<tspan x="10" y="1866">    │   │   │ └── spdx-license-ids@1.2.2 </tspan>
<tspan x="10" y="1882">    │   │   └── spdx-expression-parse@1.0.4 </tspan>
<tspan x="10" y="1898">    │   └── path-type@2.0.0 </tspan>
<tspan x="10" y="1914">    ├── rimraf@2.6.1 </tspan>
<tspan x="10" y="1930">    ├─┬ run-async@2.3.0 </tspan>
<tspan x="10" y="1946">    │ └── is-promise@2.1.0 </tspan>
<tspan x="10" y="1962">    ├─┬ shelljs@0.7.7 </tspan>
<tspan x="10" y="1978">    │ ├── interpret@1.0.2 </tspan>
<tspan x="10" y="1994">    │ └─┬ rechoir@0.6.2 </tspan>
<tspan x="10" y="2010">    │   └─┬ resolve@1.3.2 </tspan>
<tspan x="10" y="2026">    │     └── path-parse@1.0.5 </tspan>
<tspan x="10" y="2042">    ├── text-table@0.2.0 </tspan>
<tspan x="10" y="2058">    ├─┬ through2@2.0.3 </tspan>
<tspan x="10" y="2074">    │ └─┬ readable-stream@2.2.9 </tspan>
<tspan x="10" y="2090">    │   ├── buffer-shims@1.0.0 </tspan>
<tspan x="10" y="2106">    │   ├── core-util-is@1.0.2 </tspan>
<tspan x="10" y="2122">    │   ├── isarray@1.0.0 </tspan>
<tspan x="10" y="2138">    │   ├── process-nextick-args@1.0.7 </tspan>
<tspan x="10" y="2154">    │   └── string_decoder@1.0.0 </tspan>
<tspan x="10" y="2170">    ├─┬ user-home@2.0.0 </tspan>
<tspan x="10" y="2186">    │ └── os-homedir@1.0.2 </tspan>
<tspan x="10" y="2202">    └─┬ yeoman-environment@1.6.6 </tspan>
<tspan x="10" y="2218">      ├── diff@2.2.3 </tspan>
<tspan x="10" y="2234">      ├─┬ globby@4.1.0 </tspan>
<tspan x="10" y="2250">      │ ├── glob@6.0.4 </tspan>
<tspan x="10" y="2266">      │ └── object-assign@4.1.1 </tspan>
<tspan x="10" y="2282">      ├── grouped-queue@0.3.3 </tspan>
<tspan x="10" y="2298">      ├─┬ inquirer@1.2.3 </tspan>
<tspan x="10" y="2314">      │ ├── ansi-escapes@1.4.0 </tspan>
<tspan x="10" y="2330">      │ ├─┬ cli-cursor@1.0.2 </tspan>
<tspan x="10" y="2346">      │ │ └─┬ restore-cursor@1.0.1 </tspan>
<tspan x="10" y="2362">      │ │   ├── exit-hook@1.1.1 </tspan>
<tspan x="10" y="2378">      │ │   └── onetime@1.1.0 </tspan>
<tspan x="10" y="2394">      │ ├── cli-width@2.1.0 </tspan>
<tspan x="10" y="2410">      │ ├─┬ external-editor@1.1.1 </tspan>
<tspan x="10" y="2426">      │ │ ├── extend@3.0.0 </tspan>
<tspan x="10" y="2442">      │ │ ├─┬ spawn-sync@1.0.15 </tspan>
<tspan x="10" y="2458">      │ │ │ ├─┬ concat-stream@1.6.0 </tspan>
<tspan x="10" y="2474">      │ │ │ │ └── typedarray@0.0.6 </tspan>
<tspan x="10" y="2490">      │ │ │ └── os-shim@0.1.3 </tspan>
<tspan x="10" y="2506">      │ │ └─┬ tmp@0.0.29 </tspan>
<tspan x="10" y="2522">      │ │   └── os-tmpdir@1.0.2 </tspan>
<tspan x="10" y="2538">      │ ├─┬ figures@1.7.0 </tspan>
<tspan x="10" y="2554">      │ │ └── object-assign@4.1.1 </tspan>
<tspan x="10" y="2570">      │ ├── mute-stream@0.0.6 </tspan>
<tspan x="10" y="2586">      │ ├── rx@4.1.0 </tspan>
<tspan x="10" y="2602">      │ ├─┬ string-width@1.0.2 </tspan>
<tspan x="10" y="2618">      │ │ ├── code-point-at@1.1.0 </tspan>
<tspan x="10" y="2634">      │ │ └─┬ is-fullwidth-code-point@1.0.0 </tspan>
<tspan x="10" y="2650">      │ │   └── number-is-nan@1.0.1 </tspan>
<tspan x="10" y="2666">      │ └── through@2.3.8 </tspan>
<tspan x="10" y="2682">      ├── log-symbols@1.0.2 </tspan>
<tspan x="10" y="2698">      ├─┬ mem-fs@1.1.3 </tspan>
<tspan x="10" y="2714">      │ ├─┬ vinyl@1.2.0 </tspan>
<tspan x="10" y="2730">      │ │ ├── clone-stats@0.0.1 </tspan>
<tspan x="10" y="2746">      │ │ └── replace-ext@0.0.1 </tspan>
<tspan x="10" y="2762">      │ └─┬ vinyl-file@2.0.0 </tspan>
<tspan x="10" y="2778">      │   ├─┬ strip-bom@2.0.0 </tspan>
<tspan x="10" y="2794">      │   │ └── is-utf8@0.2.1 </tspan>
<tspan x="10" y="2810">      │   ├─┬ strip-bom-stream@2.0.0 </tspan>
<tspan x="10" y="2826">      │   │ ├── first-chunk-stream@2.0.0 </tspan>
<tspan x="10" y="2842">      │   │ └── strip-bom@2.0.0 </tspan>
<tspan x="10" y="2858">      │   └─┬ vinyl@1.2.0 </tspan>
<tspan x="10" y="2874">      │     ├── clone-stats@0.0.1 </tspan>
<tspan x="10" y="2890">      │     └── replace-ext@0.0.1 </tspan>
<tspan x="10" y="2906">      └── untildify@2.1.0</tspan>
</text>
</svg>
